<svg width="28" height="21" viewBox="0 0 28 21" fill="none" xmlns="http://www.w3.org/2000/svg">
  <path fill-rule="evenodd" clip-rule="evenodd" d="M0 1.90909C0 1.2 0.6 0.6 1.2 0.6H12C12.6 0.6 13.2 1.2 13.2 1.90909C13.2 2.6 12.6 3.2 12 3.2H1.2C0.6 3.2 0 2.6 0 1.90909Z" fill="#ffffff"/>
  <path fill-rule="evenodd" clip-rule="evenodd" d="M0 10.4989C0 9.9 0.6 9.3 1.2 9.3H25.2C25.8 9.3 26.4 9.9 26.4 10.4989C26.4 11.1 25.8 11.7 25.2 11.7H1.2C0.6 11.7 0 11.1 0 10.4989Z" fill="#ffffff"/>
  <path fill-rule="evenodd" clip-rule="evenodd" d="M0 19.0927C0 18.5 0.6 17.9 1.2 17.9H21.6C22.2 17.9 22.8 18.5 22.8 19.0927C22.8 19.7 22.2 20.3 21.6 20.3H1.2C0.6 20.3 0 19.7 0 19.0927Z" fill="#ffffff"/>
</svg>
